<svg version="1.0" xmlns="http://www.w3.org/2000/svg" viewBox="0 0 512 512" fill="currentColor">

<g transform="translate(0.000000,512.000000) scale(0.100000,-0.100000)" stroke="none">
<path d="M2330 5110 c-494 -48 -950 -230 -1350 -538 -195 -150 -448 -432 -594
-662 -63 -99 -186 -351 -230 -471 -49 -134 -102 -340 -128 -499 -31 -195 -31
-565 0 -760 45 -276 116 -498 237 -745 132 -269 269 -460 489 -681 221 -220
412 -357 681 -489 247 -121 469 -192 745 -237 195 -31 565 -31 760 0 276 45
498 116 745 237 269 132 460 269 681 489 220 221 357 412 489 681 88 179 132
296 180 476 63 240 78 371 78 649 0 278 -15 409 -78 649 -48 180 -92 297 -180
476 -132 269 -269 460 -489 681 -221 220 -412 357 -681 489 -246 121 -474 193
-740 235 -147 23 -475 34 -615 20z m505 -365 c371 -48 722 -189 1023 -409 l82
-60 -1547 -1548 c-851 -851 -1550 -1544 -1554 -1540 -124 147 -285 436 -358
644 -154 442 -162 952 -20 1395 261 815 963 1402 1814 1517 139 19 415 19 560
1z m1432 -797 c325 -401 493 -877 493 -1393 0 -956 -618 -1801 -1533 -2094
-213 -68 -428 -101 -662 -101 -516 0 -992 168 -1392 493 -40 32 -73 61 -73 65
0 9 3093 3102 3102 3102 4 0 33 -33 65 -72z"/>
</g>
</svg>
